<?xml version="1.0" encoding="UTF-8"?>
<svg id="Capa_1" xmlns="http://www.w3.org/2000/svg" version="1.1" xmlns:xlink="http://www.w3.org/1999/xlink" viewBox="0 0 3204.41 705.1">
  <!-- Generator: Adobe Illustrator 29.8.1, SVG Export Plug-In . SVG Version: 2.1.1 Build 2)  -->
  <defs>
    <style>
      .st0 {
        stroke: #4601fa;
        stroke-miterlimit: 10;
        stroke-width: 12px;
      }

      .st0, .st1 {
        fill: #4601fa;
      }

      .st2 {
        fill: none;
      }

      .st3 {
        clip-path: url(#clippath-1);
      }

      .st4 {
        isolation: isolate;
      }

      .st5 {
        clip-path: url(#clippath);
      }
    </style>
    <clipPath id="clippath">
      <rect class="st2" x="830.19" y="235.87" width="2151.41" height="295.54"/>
    </clipPath>
    <clipPath id="clippath-1">
      <rect class="st2" x="830.19" y="235.87" width="2151.41" height="295.54"/>
    </clipPath>
  </defs>
  <g class="st4">
    <g class="st5">
      <g class="st3">
        <g>
          <path class="st0" d="M1054.75,276.89c39.92,0,59.88,19.96,59.88,59.88h-14.97c0-29.94-14.97-44.91-44.91-44.91h-149.71c-29.94,0-44.91,14.97-44.91,44.91v104.8c0,29.94,14.97,44.91,44.91,44.91h149.71c29.94,0,44.91-14.97,44.91-44.91v-44.91h-134.74v-14.97h149.71v59.88c0,39.92-19.96,59.88-59.88,59.88h-149.71c-39.92,0-59.88-19.96-59.88-59.88v-104.8c0-39.92,19.96-59.88,59.88-59.88h149.71Z"/>
          <path class="st0" d="M1353.09,441.58h-174.86l-37.28,59.88h-17.52l142.23-228.31,142.23,228.31h-17.52l-37.28-59.88h0ZM1343.81,426.6l-78.15-125.46-78.15,125.46h156.3Z"/>
          <path class="st0" d="M1671.49,441.58v-164.68h14.97v164.68c0,39.92-19.96,59.88-59.88,59.88h-149.71c-39.92,0-59.88-19.96-59.88-59.88v-164.68h14.97v164.68c0,29.94,14.97,44.91,44.91,44.91h149.71c29.94,0,44.91-14.97,44.91-44.91Z"/>
          <path class="st0" d="M1933.8,486.49c29.94,0,44.91-14.97,44.91-44.91h14.97c0,39.92-19.96,59.88-59.88,59.88h-149.71c-39.92,0-59.88-19.96-59.88-59.88v-104.8c0-39.92,19.96-59.88,59.88-59.88h149.71c39.92,0,59.88,19.96,59.88,59.88h-14.97c0-29.94-14.97-44.91-44.91-44.91h-149.71c-29.94,0-44.91,14.97-44.91,44.91v104.8c0,29.94,14.97,44.91,44.91,44.91h149.71Z"/>
          <path class="st0" d="M2046.1,396.66v104.8h-14.97v-224.57h14.97v104.8h239.54v-104.8h14.97v224.57h-14.97v-104.8h-239.54,0Z"/>
          <path class="st0" d="M2353.32,501.46h-14.97v-224.57h14.97v224.57Z"/>
          <g class="st4">
            <g class="st4">
              <g class="st4">
                <path class="st0" d="M2405.44,301.59v199.87h-14.97v-231.16l254.51,206.45v-199.87h14.97v231.15l-254.51-206.45Z"/>
              </g>
            </g>
          </g>
          <path class="st0" d="M2757.58,501.46c-39.92,0-59.88-19.96-59.88-59.88v-104.8c0-39.92,19.96-59.88,59.88-59.88h149.71c39.92,0,59.88,19.96,59.88,59.88v104.8c0,39.92-19.96,59.88-59.88,59.88h-149.71ZM2712.67,441.58c0,29.94,14.97,44.91,44.91,44.91h149.71c29.94,0,44.91-14.97,44.91-44.91v-104.8c0-29.94-14.97-44.91-44.91-44.91h-149.71c-29.94,0-44.91,14.97-44.91,44.91v104.8h0Z"/>
        </g>
      </g>
    </g>
  </g>
  <path class="st1" d="M735.62,414.93c-41.97-23.42-106.44-28.29-106.44-28.29-18.55-1.85-37.57-2.09-56.82-.93-129.86,8.81-214.73,99.02-342.05,117.57-19.71,3.02-55.43,1.16-79.78-1.62-3.01-.23-4.87,3.48-2.55,5.56,4.87,4.64,11.13,9.04,17.39,13.45,17.16,12.06,36.64,19.94,57.04,23.19,45.22,7.19,86.03,5.34,130.09-5.33,101.8-24.35,183.43-100.41,287.55-118.96,27.6-4.87,70.73-7.42,98.56.23.23,0,1.62.46,2.55-.46.23-.23.7-.46.7-.93-.23-.69-1.62-1.39-3.02-2.09-.46.23-1.85-.46-3.25-1.39"/>
  <path class="st1" d="M471.49,302c-2.55-.7-4.17-3.02-3.71-5.33,7.42-30.84,21.1-60.06,39.42-82.09,1.16-1.16,2.09-2.32,4.17-1.62-15.54,26.67-25.51,56.58-29.68,87.89-.23,2.32-2.78,3.71-5.33,2.78-1.39-.46-3.25-1.16-4.87-1.62"/>
  <path class="st1" d="M468.48,302.93c.69.46,1.62.93,2.55,1.16,1.62.46,3.25.93,4.87,1.62,1.85.7,3.94.7,5.57-.46,1.39-.93,2.32-2.32,2.55-3.94,4.17-31.54,14.14-60.76,29.45-86.96l1.39-2.32-2.55-.93c-3.25-1.16-5.1.7-6.26,1.85l-.23.23c-18.32,21.57-32.47,51.25-40.12,83.02-.46,2.55.7,5.33,2.78,6.73M472.19,299.91c-1.39-.23-2.32-1.62-2.09-2.55,6.73-28.29,18.78-54.73,34.09-74.9-12.29,24.12-20.64,50.32-24.35,78.38,0,.46-.23.69-.46.93-.46.23-1.16.23-1.86,0-1.85-.7-3.71-1.39-5.33-1.85"/>
  <path class="st1" d="M552.19,361.83c-17.16-38.49-59.6-64.47-107.6-61.68-60.53,3.48-107.14,51.25-104.12,106.9.46,9.51,2.32,18.32,5.56,26.9,0,.15.08.31.23.46,4.64,3.71,11.13.23,14.38-4.41-2.78-7.42-4.64-15.3-5.1-23.65-2.78-47.31,37.8-87.89,89.97-90.9,41.28-2.32,78.15,19.71,92.76,52.64,1.16,3.02,4.41,4.87,7.65,4.64,5.1-.7,8.35-6.26,6.26-10.9"/>
  <path class="st1" d="M351.37,437.89c-5.8,1.16-4.41-.7-6.03-2.09-.46-.46-.93-.93-.93-1.63-3.25-8.81-5.33-17.85-5.8-27.36-3.25-56.58,44.53-105.51,106.21-109.23,47.54-2.55,91.6,22.73,109.69,63.08,1.16,2.78,2.78,6.96,1.16,9.74-1.62,2.78-6.03,3.71-9.04,3.94-4.41.23-8.35-2.09-9.97-6.03-14.61-32.7-51.25-53.34-90.67-51.25-26.2,1.39-50.79,12.99-67.48,31.54-14.38,16.23-21.8,36.41-20.41,56.82.23,7.65,1.85,15.3,4.87,22.72l.23,1.16-.46,1.16c-2.78,3.71-6.73,6.26-10.43,6.73-.23.7-.7.7-.93.7M347.43,430.7c.7,1.85,2.32,3.02,4.17,2.78,1.39-.23,3.02-.93,4.41-1.86,1.39-1.16,2.09-3.01,1.39-4.64-2.32-6.73-3.48-13.68-3.71-20.64-1.16-21.57,6.49-42.9,21.57-60.06,17.39-19.48,43.13-31.54,70.5-33.16,41.28-2.09,79.31,19.25,94.85,53.8.93,2.09,3.02,3.48,5.56,3.25,1.39-.23,3.02-1.16,3.94-2.78.93-1.62.93-3.25.23-4.87-17.16-38.73-59.6-63.07-105.28-60.53-59.37,3.48-105.05,50.32-102.04,104.59.23,8.35,1.85,16.47,4.41,24.12"/>
  <path class="st1" d="M421.17,272.32c1.39,4.87,10.2,29.68,11.13,35.02-2.55,0-5.33.46-7.88,1.16-3.02.7-5.8,1.85-8.35,3.25-1.85-1.39-2.32-4.64-3.25-7.42-17.86-50.55-16.46-118.5,3.25-168.59.7-1.62,1.16-3.25,3.25-3.01-10.43,45.68-9.74,94.38,1.85,139.6"/>
  <path class="st1" d="M432.76,301.54c0-.93-.23-1.85-.46-2.78-1.39-4.41-3.25-9.74-4.87-14.61-1.85-5.57-3.71-10.67-4.17-12.52-11.83-44.99-12.52-92.76-1.85-138.21l.46-2.55-2.32-.46c-3.71-.46-4.87,2.55-5.33,4.17v.23c-20.18,50.78-21.33,118.96-3.25,170.21,0,.23.23.7.23.93,1.16,3.94,4.87,6.73,9.74,6.26,1.39-.46,2.78-.93,4.41-1.39.23,0,.69-.23.93-.23,2.32-.46,4.41-2.09,5.57-4.41.46-1.39.93-3.02.93-4.64M409.81,203.68c.46,23.19,3.48,46.61,9.51,69.11.46,2.09,2.32,6.96,4.17,12.99,1.62,4.87,3.48,10.2,4.87,14.61.46,1.16.23,2.55-.23,3.48-.7,1.16-1.63,1.85-2.78,2.09-.23,0-.7.23-.93.23-1.16.23-2.32.69-3.25.93-1.16.46-2.32.23-3.48-.23-.93-.46-1.62-1.39-2.09-2.55,0-.46-.23-.7-.46-1.16-16.47-46.38-16.47-107.14-.93-155.37-3.48,18.78-4.87,37.34-4.41,55.89"/>
  <path class="st1" d="M374.33,333.08c-1.85,1.85-4.64,2.09-6.49.7-23.42-21.57-42.2-47.77-52.41-74.44-.46-1.39-1.16-2.78.7-4.41,15.77,26.44,37.1,49.86,62.15,68.64,1.85,1.39,1.85,4.17-.23,6.03-1.16.93-2.55,2.09-3.71,3.48"/>
  <path class="st1" d="M373.63,336.09c.93-.46,1.62-.93,2.32-1.62,1.16-1.16,2.32-2.32,3.71-3.48,1.62-1.39,2.55-3.25,2.32-5.1,0-1.63-.93-3.25-2.32-4.41-25.28-19.02-46.15-41.97-61.69-68.18l-1.39-2.32-2.09,1.62c-2.55,2.32-1.85,4.87-1.39,6.26v.46c9.97,26.44,28.75,53.34,53.1,75.6,2.09,2.09,5.1,2.32,7.42,1.16M372.7,331.45c-.93.93-2.55,1.16-3.25.46-21.33-19.71-38.49-43.13-48.7-66.32,15.07,22.5,33.86,42.44,56.58,59.37.23.23.46.46.46.93s-.23,1.16-.93,1.62c-1.62,1.39-2.78,2.78-4.17,3.94"/>
  <path class="st1" d="M318.67,362.76c4.87,1.16,31.08,4.87,36.41,6.49-1.16,2.32-2.09,4.87-2.78,7.42-.69,3.01-.93,6.03-.93,8.81-2.09.93-5.1-.23-8.12-.46-53.11-7.65-112.7-40.35-147.72-81.17-1.16-1.16-2.32-2.55-1.16-4.17,35.48,30.61,78.85,52.64,124.3,63.08"/>
  <path class="st1" d="M349.98,366.24c-.93-.46-1.62-.69-2.55-.93-4.41-.7-10.2-1.62-15.31-2.55-5.8-.93-11.13-1.85-12.99-2.32-45.45-10.44-88.12-32-123.37-62.61l-1.85-1.62-1.39,2.09c-2.09,3.01,0,5.56,1.16,6.73l.23.23c35.48,41.28,95.54,74.2,149.11,81.86.23,0,.7,0,.93.23,4.17.69,8.12-1.39,9.97-5.57.23-1.39.46-3.01.7-4.41,0-.23.23-.69.23-.93.7-2.32.23-4.87-1.16-6.96-.93-1.39-2.32-2.55-3.71-3.25M252.58,341.19c20.87,10.44,42.9,18.55,65.63,23.65,2.09.46,7.19,1.39,13.45,2.32,5.1.7,10.67,1.62,15.07,2.55,1.16.23,2.32.93,3.01,1.85.7,1.16.93,2.32.7,3.48,0,.23-.23.7-.23.93-.23,1.16-.46,2.32-.7,3.48-.23,1.16-.93,2.32-1.85,2.78-.93.7-2.09.93-3.25.7-.46,0-.7-.23-1.16-.23-48.7-6.96-102.5-35.02-137.98-71.19,14.84,11.36,30.84,21.33,47.31,29.68"/>
  <path class="st1" d="M351.37,430.7c.46,1.39,2.32,3.25,1.62,4.41-.46.93-3.01,1.16-3.94,1.62-31.77,12.06-66.32,18.09-97.16,16-1.62-.23-3.25-.23-3.94-2.55,33.16-3.02,65.86-12.52,96-27.36,2.32-1.16,5.1.23,5.8,2.78.23,1.85.93,3.48,1.62,5.1"/>
  <path class="st1" d="M354.39,432.79c0-.93-.23-1.85-.46-2.78-.7-1.62-1.16-3.25-1.62-4.87-.7-2.09-2.09-3.71-3.94-4.41-1.63-.7-3.71-.7-5.34.23-30.38,15.07-62.38,24.12-95.08,27.13l-2.78.23.7,2.55c1.16,3.48,3.94,3.71,5.56,3.94h.46c30.61,2.09,65.63-3.71,98.56-16.23,1.39-.46,3.48-.93,4.17-2.09.46-.7-.23-2.32-.23-3.71M349.28,431.63c.46,1.39,0,2.78-.93,3.25-29.22,11.13-60.06,16.93-87.66,16.23,28.99-4.17,57.28-12.99,84.41-26.2.46-.23.7-.23,1.16,0s.93.7,1.16,1.39c.7,1.86,1.16,3.71,1.85,5.33"/>
  <path class="st1" d="M550.57,305.94c-3.48,3.71-19.94,24.35-23.89,28.06-1.39-2.32-3.25-4.17-5.1-6.03-2.32-2.09-4.64-3.94-7.19-5.34.23-2.32,2.78-4.41,4.64-6.73,33.62-41.74,92.06-76.52,144.94-85.8,1.62-.23,3.48-.7,4.17,1.16-44.29,14.61-85.34,40.82-117.57,74.67"/>
  <path class="st1" d="M531.79,330.99c.7-.46,1.39-1.16,2.09-1.85,3.02-3.48,6.49-7.88,9.97-11.83,3.71-4.41,7.19-8.81,8.58-10.21,32-33.62,72.35-59.36,116.64-74.44l2.32-.93-.93-2.32c-1.39-3.25-4.87-2.78-6.26-2.55h-.23c-53.57,9.51-112.47,44.53-146.33,86.73-.23.23-.46.46-.69.7-2.78,3.25-3.02,7.65-.23,11.36,1.16.93,2.32,1.85,3.48,3.01.23.23.46.46.7.7,1.62,1.85,4.17,2.55,6.73,2.55,1.16.46,2.78,0,4.17-.93M602.75,260.03c-19.71,12.52-37.8,27.6-53.8,44.29-1.39,1.62-4.87,5.56-8.81,10.44-3.25,3.94-6.96,8.35-9.74,11.83-.93.93-2.09,1.62-3.25,1.62s-2.55-.46-3.25-1.16c-.23-.23-.46-.46-.69-.7-.93-.7-1.62-1.62-2.55-2.32-.93-.69-1.39-1.85-1.62-3.01,0-1.16.23-2.09.93-3.02.23-.23.46-.46.7-.93,30.84-38.26,82.32-70.5,131.49-82.55-17.16,6.96-33.86,15.54-49.39,25.51"/>
  <path class="st1" d="M546.63,362.53c-.46-1.39-2.32-3.25-1.62-4.41.46-.93,3.01-1.16,3.94-1.62,31.77-12.06,66.32-18.09,97.16-16,1.62.23,3.25.23,3.94,2.55-33.16,3.02-65.86,12.52-96,27.36-2.32,1.16-5.1-.23-5.8-2.78-.46-1.85-.93-3.48-1.62-5.1"/>
  <path class="st1" d="M543.61,360.21c0,.93.23,1.86.46,2.78.7,1.62,1.16,3.25,1.62,4.87.7,2.09,2.09,3.71,3.94,4.41,1.62.7,3.71.7,5.34-.23,30.38-15.07,62.38-24.12,95.08-27.13l2.78-.23-.7-2.55c-1.16-3.48-3.94-3.71-5.57-3.94h-.46c-30.61-2.09-65.63,3.71-98.56,16.23-1.39.46-3.48.93-4.17,2.09-.46.7.23,2.55.23,3.71M548.48,361.37c-.46-1.39,0-2.78.93-3.25,29.22-11.13,60.06-16.93,87.66-16.23-28.99,4.17-57.28,12.99-84.41,26.2-.46.23-.7.23-1.16,0-.46-.23-.93-.7-1.16-1.39-.46-1.86-1.16-3.48-1.85-5.34"/>
  <path class="st1" d="M793.37,484.97c-41.74-21.8-104.59-24.12-104.59-24.12-18.09-1.16-36.64-.7-55.42,1.39-125.92,13.68-205,107.14-327.9,130.79-19.01,3.71-53.8,3.25-77.69,1.62-3.01-.23-4.41,3.48-2.32,5.57,5.1,4.41,11.13,8.58,17.39,12.75,17.16,11.36,36.41,18.55,56.35,20.87,44.29,5.57,83.95,1.85,126.15-10.2,98.09-28.29,174.16-107.6,274.8-129.86,26.67-6.03,68.64-9.97,95.77-3.71.23,0,1.62.23,2.32-.46.23-.23.7-.7.46-.93-.23-.69-1.63-1.16-3.02-2.09.23-.23-.93-.93-2.32-1.62"/>
</svg>